<?xml version="1.0" encoding="iso-8859-1"?>
<!-- Generator: Adobe Illustrator 19.0.0, SVG Export Plug-In . SVG Version: 6.00 Build 0)  -->
<svg version="1.1" id="Capa_1" xmlns="http://www.w3.org/2000/svg" xmlns:xlink="http://www.w3.org/1999/xlink" x="0px" y="0px"
	 viewBox="0 0 512 512" style="enable-background:new 0 0 512 512;" xml:space="preserve">
<path style="fill:#D0E8F9;" d="M375.211,62.114V42.667H136.277v19.447c0,58.573,23.27,114.756,64.691,156.177l8.576,8.576
	c7.731,7.731,12.066,18.21,12.066,29.133l0,0c0,10.931-4.343,21.41-12.066,29.133l-8.576,8.576
	c-41.421,41.421-64.691,97.596-64.691,156.177v19.447h238.933v-19.447c0-58.573-23.27-114.756-64.691-156.177l-8.576-8.576
	c-7.723-7.723-12.066-18.202-12.066-29.133l0,0c0-10.931,4.343-21.41,12.066-29.133l8.576-8.576
	C351.94,176.87,375.211,120.695,375.211,62.114z"/>
<g>
	<path style="fill:#CC6F56;" d="M392.277,42.667H119.211c-9.429,0-17.067-7.637-17.067-17.067l0,0
		c0-9.429,7.637-17.067,17.067-17.067h273.067c9.429,0,17.067,7.637,17.067,17.067l0,0
		C409.344,35.029,401.707,42.667,392.277,42.667z"/>
	<path style="fill:#CC6F56;" d="M392.277,503.467H119.211c-9.429,0-17.067-7.637-17.067-17.067l0,0
		c0-9.429,7.637-17.067,17.067-17.067h273.067c9.429,0,17.067,7.637,17.067,17.067l0,0
		C409.344,495.829,401.707,503.467,392.277,503.467z"/>
</g>
<g>
	<path style="fill:#F9EAB0;" d="M255.744,256c-4.719,0-8.533-3.814-8.533-8.533c0-17.852-6.946-34.62-19.567-47.241l-8.567-8.567
		c-13.261-13.252-22.494-28.211-30.498-42.402c-0.828-1.468-1.195-3.294-1.067-4.975c0,0,0.145-1.835,0.913-4.676
		c4.087-15.095,17.596-25.242,33.613-25.242c7.748,0,15.189,2.423,21.513,6.997c7.834,5.666,27.588,15.172,71.927,15.172
		c8.585,0,11.52,5.052,12.382,7.228c3.763,9.523-5.504,19.61-27.563,40.354c-3.021,2.842-5.769,5.427-7.876,7.526l-8.585,8.585
		c-12.604,12.621-19.558,29.389-19.558,47.241C264.277,252.186,260.463,256,255.744,256z"/>
	<path style="fill:#F9EAB0;" d="M340.514,443.733H170.982c-2.372,0-4.651-0.99-6.255-2.731c-1.613-1.749-2.432-4.087-2.253-6.46
		c2.133-27.674,13.235-39.177,26.078-52.489c1.732-1.792,3.533-3.661,5.385-5.632c10.709-11.452,25.847-18.022,41.532-18.022h40.55
		c15.693,0,30.831,6.571,41.54,18.022c1.852,1.98,3.661,3.849,5.393,5.641c12.843,13.312,23.936,24.806,26.069,52.471
		c0.179,2.372-0.631,4.71-2.253,6.46C345.165,442.743,342.886,443.733,340.514,443.733z"/>
</g>
<g>
	<path style="fill:#BAA445;" d="M255.744,298.667c-4.719,0-8.533-3.814-8.533-8.533V281.6c0-4.719,3.814-8.533,8.533-8.533
		c4.719,0,8.533,3.814,8.533,8.533v8.533C264.277,294.852,260.463,298.667,255.744,298.667z"/>
	<path style="fill:#BAA445;" d="M255.744,341.333c-4.719,0-8.533-3.814-8.533-8.533v-8.533c0-4.719,3.814-8.533,8.533-8.533
		c4.719,0,8.533,3.814,8.533,8.533v8.533C264.277,337.519,260.463,341.333,255.744,341.333z"/>
</g>
<g>
	<path style="fill:#611C90;" d="M392.533,51.2H119.467c-14.114,0-25.6-11.486-25.6-25.6S105.353,0,119.467,0h273.067
		c14.114,0,25.6,11.486,25.6,25.6S406.647,51.2,392.533,51.2z M119.467,17.067c-4.702,0-8.533,3.831-8.533,8.533
		s3.831,8.533,8.533,8.533h273.067c4.71,0,8.533-3.831,8.533-8.533s-3.823-8.533-8.533-8.533H119.467z"/>
	<path style="fill:#611C90;" d="M392.533,512H119.467c-14.114,0-25.6-11.486-25.6-25.6s11.486-25.6,25.6-25.6h273.067
		c14.114,0,25.6,11.486,25.6,25.6S406.647,512,392.533,512z M119.467,477.867c-4.702,0-8.533,3.823-8.533,8.533
		s3.831,8.533,8.533,8.533h273.067c4.71,0,8.533-3.823,8.533-8.533s-3.823-8.533-8.533-8.533H119.467z"/>
	<path style="fill:#611C90;" d="M375.467,477.867H136.533c-4.71,0-8.533-3.814-8.533-8.533v-19.447
		c0-61.269,23.859-118.878,67.191-162.21l8.576-8.576c6.17-6.17,9.566-14.379,9.566-23.1c0-8.721-3.396-16.93-9.566-23.1
		l-8.576-8.576C151.859,180.992,128,123.383,128,62.114V42.667c0-4.71,3.823-8.533,8.533-8.533h238.933
		c4.719,0,8.533,3.823,8.533,8.533v19.447c0,61.278-23.859,118.886-67.191,162.21l-8.576,8.576c-6.17,6.17-9.566,14.379-9.566,23.1
		c0,8.721,3.396,16.93,9.566,23.1l8.576,8.576C360.141,330.999,384,388.608,384,449.886v19.447
		C384,474.052,380.186,477.867,375.467,477.867z M145.067,460.8h221.867v-10.914c0-56.713-22.084-110.037-62.191-150.144
		l-8.576-8.576C286.771,281.779,281.6,269.286,281.6,256c0-13.286,5.171-25.779,14.566-35.166l8.576-8.576
		c40.107-40.098,62.191-93.423,62.191-150.144V51.2H145.067v10.914c0,56.713,22.084,110.046,62.191,150.144l8.576,8.576
		c9.395,9.387,14.566,21.879,14.566,35.166c0,13.286-5.171,25.779-14.566,35.166l-8.576,8.576
		c-40.107,40.107-62.191,93.431-62.191,150.144V460.8z"/>
	<path style="fill:#611C90;" d="M256,256c-4.71,0-8.533-3.823-8.533-8.533c0-17.843-6.946-34.62-19.567-47.241l-8.567-8.567
		c-13.286-13.286-22.511-28.228-30.498-42.402c-0.836-1.485-1.195-3.311-1.067-5.001c0,0,0.145-1.809,0.905-4.634
		c2.961-10.94,10.82-19.388,21.572-23.194c11.23-3.977,23.799-2.133,33.57,4.941c7.817,5.658,27.554,15.164,71.919,15.164
		c8.585,0,11.52,5.052,12.373,7.228c3.772,9.515-5.504,19.61-27.554,40.363c-3.021,2.842-5.777,5.427-7.876,7.526l-8.585,8.585
		c-12.612,12.612-19.558,29.389-19.558,47.232C264.533,252.177,260.71,256,256,256z M205.269,143.642
		c7.97,13.909,15.642,25.463,26.129,35.951l8.567,8.567c6.63,6.63,12.015,14.174,16.034,22.349
		c4.019-8.175,9.404-15.718,16.026-22.34l8.585-8.585c2.202-2.202,5.086-4.915,8.243-7.893c4.779-4.48,13.047-12.271,18.321-18.21
		c-41.088-1.135-62.515-10.428-73.37-18.304c-5.214-3.772-11.895-4.779-17.86-2.671
		C212.838,133.615,207.377,136.516,205.269,143.642z"/>
	<path style="fill:#611C90;" d="M340.762,443.733H171.23c-2.381,0-4.642-0.99-6.263-2.731c-1.613-1.749-2.432-4.087-2.244-6.46
		c2.133-27.674,13.227-39.177,26.078-52.489c1.732-1.792,3.533-3.661,5.385-5.632c10.709-11.452,25.856-18.022,41.54-18.022h40.55
		c15.701,0,30.839,6.571,41.54,18.022c1.843,1.971,3.635,3.831,5.367,5.623c12.851,13.321,23.953,24.806,26.086,52.489
		c0.179,2.372-0.631,4.71-2.253,6.46C345.412,442.743,343.134,443.733,340.762,443.733z M180.941,426.667h150.11
		c-2.91-14.899-9.796-22.042-20.147-32.768c-1.792-1.852-3.644-3.772-5.555-5.82c-7.492-8.021-18.082-12.612-29.073-12.612h-40.55
		c-10.982,0-21.581,4.591-29.082,12.612c-1.911,2.039-3.772,3.968-5.564,5.828C190.737,404.625,183.842,411.768,180.941,426.667z"/>
	<path style="fill:#611C90;" d="M255.744,298.667c-4.71,0-8.533-3.814-8.533-8.533V281.6c0-4.719,3.823-8.533,8.533-8.533
		s8.533,3.814,8.533,8.533v8.533C264.277,294.852,260.454,298.667,255.744,298.667z"/>
	<path style="fill:#611C90;" d="M255.744,341.333c-4.71,0-8.533-3.814-8.533-8.533v-8.533c0-4.719,3.823-8.533,8.533-8.533
		s8.533,3.814,8.533,8.533v8.533C264.277,337.519,260.454,341.333,255.744,341.333z"/>
</g>
<g>
</g>
<g>
</g>
<g>
</g>
<g>
</g>
<g>
</g>
<g>
</g>
<g>
</g>
<g>
</g>
<g>
</g>
<g>
</g>
<g>
</g>
<g>
</g>
<g>
</g>
<g>
</g>
<g>
</g>
</svg>
